<svg width="24" height="24" viewBox="0 0 24 24" fill="none" xmlns="http://www.w3.org/2000/svg">
<path d="M7.40203 22.256C8.84147 22.8187 10.4082 23.0681 11.9749 22.9841C12.4656 22.9841 17.6715 22.7193 20.846 18.8714C22.9853 16.2811 22.9951 13.5232 23 11.0124C23 8.36473 22.8626 3.51073 21.1159 3.1533C20.4191 3.00768 19.5212 3.59458 19.0993 4.11969C18.8638 4.41975 18.7804 4.70658 18.5596 6.41872C18.5056 6.85999 18.3191 8.35149 18.2946 8.35149C18.2701 8.35149 19.5163 4.82131 18.1965 2.31047C18.1965 2.31047 17.6077 1.15434 16.6803 1.26907C15.753 1.3838 14.3546 3.40483 14.124 4.60509C13.8717 5.96196 13.7813 7.33918 13.8542 8.71333C13.7323 6.6846 13.4635 4.66517 13.0495 2.6679C12.6913 0.94253 12.1712 1.04402 11.8768 1.00431C11.082 0.911641 9.70321 2.32812 9.68849 3.87258C9.65414 7.04091 9.3205 9.07517 9.41863 9.07076C9.51676 9.06635 10.3999 2.89295 7.80437 1.69711C7.51664 1.56326 7.20156 1.48366 6.87843 1.46317C6.5553 1.44268 6.23091 1.48174 5.92516 1.57796C3.35902 2.53111 3.44734 8.66479 4.9831 13.0687C5.47292 14.3474 6.08015 15.5872 6.79852 16.7754C7.69643 18.5934 9.33031 18.8493 10.763 18.386C11.9946 17.9933 12.7257 16.6871 12.6471 15.606C12.5098 13.5761 9.55601 12.4112 7.53451 11.6346C5.76324 10.9373 2.92234 9.81651 1.64663 10.9109C0.557373 11.7846 1.08728 13.6865 1.48471 15.125C1.79873 16.2458 2.98122 20.4776 7.40203 22.256Z" stroke="url(#paint0_linear)" stroke-width="2"/>
<defs>
<linearGradient id="paint0_linear" x1="-10.4753" y1="1" x2="56.2049" y2="24.4198" gradientUnits="userSpaceOnUse">
<stop stop-color="#2DD1E7"/>
<stop offset="0.635417" stop-color="#F067F9"/>
</linearGradient>
</defs>
</svg>
